<svg id="line" height="512" viewBox="0 0 64 64" width="512" xmlns="http://www.w3.org/2000/svg"><path d="m58 13h-40a5.006 5.006 0 0 0 -5 5v40a5.006 5.006 0 0 0 5 5h40a5.006 5.006 0 0 0 5-5v-40a5.006 5.006 0 0 0 -5-5zm1 29a1 1 0 0 1 -1 1h-2.724a17.832 17.832 0 0 1 -1.526 3.679l1.928 1.927a1 1 0 0 1 0 1.415l-5.657 5.657a1 1 0 0 1 -1.415 0l-1.926-1.928a17.8 17.8 0 0 1 -3.68 1.526v2.724a1 1 0 0 1 -1 1h-8a1 1 0 0 1 -1-1v-2.724a17.8 17.8 0 0 1 -3.68-1.526l-1.926 1.928a1.031 1.031 0 0 1 -1.415 0l-5.657-5.657a1 1 0 0 1 0-1.415l1.928-1.927a17.832 17.832 0 0 1 -1.526-3.679h-2.724a1 1 0 0 1 -1-1v-8a1 1 0 0 1 1-1h2.724a17.832 17.832 0 0 1 1.526-3.679l-1.928-1.927a1 1 0 0 1 0-1.415l5.657-5.657a1 1 0 0 1 1.415 0l1.926 1.928a17.8 17.8 0 0 1 3.68-1.526v-2.724a1 1 0 0 1 1-1h8a1 1 0 0 1 1 1v2.724a17.8 17.8 0 0 1 3.68 1.526l1.926-1.928a1.031 1.031 0 0 1 1.415 0l5.657 5.657a1 1 0 0 1 0 1.415l-1.928 1.927a17.832 17.832 0 0 1 1.526 3.679h2.724a1 1 0 0 1 1 1z" fill="#c4a2fc"/><circle cx="38" cy="38" fill="#c4a2fc" r="9"/><g fill="#151a6a"><path d="m48 1h-44a3 3 0 0 0 -3 3v27a3 3 0 0 0 3 3h17v2h-3a5.006 5.006 0 0 0 -5 5 1 1 0 0 0 1 1h24a1 1 0 0 0 1-1 5.006 5.006 0 0 0 -5-5h-3v-2h17a3 3 0 0 0 3-3v-27a3 3 0 0 0 -3-3zm-14 37a3.006 3.006 0 0 1 2.829 2h-21.658a3.006 3.006 0 0 1 2.829-2zm-11-2v-2h6v2zm26-5a1 1 0 0 1 -1 1h-44a1 1 0 0 1 -1-1v-27a1 1 0 0 1 1-1h44a1 1 0 0 1 1 1z"/><path d="m46 5h-40a1 1 0 0 0 -1 1v23a1 1 0 0 0 1 1h40a1 1 0 0 0 1-1v-23a1 1 0 0 0 -1-1zm-1 23h-38v-21h38z"/><path d="m13.332 18.27 4.915 4.984a1.139 1.139 0 0 0 1.574 0 1.109 1.109 0 0 0 0-1.574l-4.145-4.18 4.145-4.18a1.109 1.109 0 0 0 0-1.574 1.141 1.141 0 0 0 -1.574 0l-4.915 4.984c-.369.248-.388 1.407 0 1.54z"/><path d="m24.812 23.5a.968.968 0 0 0 1.242-.507l4.284-10.214a.944.944 0 0 0 -.489-1.242.971.971 0 0 0 -1.277.507l-4.285 10.2a.944.944 0 0 0 .525 1.256z"/><path d="m32.179 23.254a1.141 1.141 0 0 0 1.574 0l4.915-4.984a1.145 1.145 0 0 0 0-1.54l-4.915-4.984a1.141 1.141 0 0 0 -1.574 0 1.109 1.109 0 0 0 0 1.574l4.145 4.18-4.145 4.18a1.109 1.109 0 0 0 0 1.574z"/></g></svg>